<?xml version="1.0" encoding="UTF-8" standalone="no"?>
<svg
   height="24"
   viewBox="0 -960 960 960"
   width="24"
   version="1.1"
   id="svg1"
   sodipodi:docname="change_circle_FILL0_wght400_GRAD0_opsz24.svg"
   xmlns:inkscape="http://www.inkscape.org/namespaces/inkscape"
   xmlns:sodipodi="http://sodipodi.sourceforge.net/DTD/sodipodi-0.dtd"
   xmlns="http://www.w3.org/2000/svg"
   xmlns:svg="http://www.w3.org/2000/svg">
  <defs
     id="defs1" />
  <sodipodi:namedview
     id="namedview1"
     pagecolor="#ffffff"
     bordercolor="#000000"
     borderopacity="0.25"
     inkscape:showpageshadow="2"
     inkscape:pageopacity="0.0"
     inkscape:pagecheckerboard="0"
     inkscape:deskcolor="#d1d1d1" />
  <path
     d="m 478,-200 -114,-113 114,-113 42,42 -43,43 q 28,1 54.5,-9 26.5,-10 47.5,-31 20,-20 30.5,-46 10.5,-26 10.5,-52 0,-17 -4.5,-34 -4.5,-17 -12.5,-33 l 44,-44 q 17,25 25,53 8,28 8,57 0,38 -15,75 -15,37 -44,66 -29,29 -65,43.5 -36,14.5 -74,15.5 l 38,38 z M 313,-370 q -17,-25 -25,-53 -8,-28 -8,-57 0,-38 14.5,-75.5 14.5,-37.5 43.5,-66.5 29,-29 65.5,-43 36.5,-14 74.5,-14 l -38,-39 42,-42 114,113 -114,113 -42,-42 44,-44 q -27,0 -55,10.5 -28,10.5 -48,30.5 -20,20 -30.5,46 -10.5,26 -10.5,52 0,17 4.5,34 4.5,17 12.5,33 z m 167,290 q 83,0 156,-31.5 73,-31.5 127,-85.5 54,-54 85.5,-127 31.5,-73 31.5,-156 0,-83 -31.5,-156 Q 817,-709 763,-763 709,-817 636,-848.5 563,-880 480,-880 q -83,0 -156,31.5 -73,31.5 -127,85.5 -54,54 -85.5,127 -31.5,73 -31.5,156 0,83 31.5,156 31.5,73 85.5,127 54,54 127,85.5 73,31.5 156,31.5 z m 0,-80 q -134,0 -227,-93 -93,-93 -93,-227 0,-134 93,-227 93,-93 227,-93 134,0 227,93 93,93 93,227 0,134 -93,227 -93,93 -227,93 z m 0,-320 z"
     id="path1" />
</svg>
